# xmcd
# 
# Track frame offsets:
#     150
#     15551
#     27489
#     46926
#     60856
#     74443
#     90081
#     105150
#     120236
#     134499
#     148403
#     160609
#     173350
#     186719
#     199140
# 
# Disc length: 2818
# 
# Revision: 1
# Processed by: cddbd v1.5.2PL0 Copyright (c) Steve Scherf et al.
# Submitted via: fre:ac v1.0.17
# 
DISCID=bf0b000f
DTITLE=jazz - etc-10
DYEAR=0
DGENRE=
TTITLE0=Fats Waller - Cash For Your Trush
TTITLE1=Bud Powell - Bud's Bubble
TTITLE2=Bud Powell - A Night In Tunisia
TTITLE3=Thelonious Monk - Eronel
TTITLE4=George Shearing - I'll Be Around
TTITLE5=Teddy Wilson - 's Wonderful
TTITLE6=Erroll Gerner - I Can't Get Started With You
TTITLE7=Oscar Peterson - Yesterdays
TTITLE8=Erroll Gerner - Loot To Boot
TTITLE9=Art Tatum - Time On My Hands
TTITLE10=Erroll Gerner - Laura
TTITLE11=Art Tatum - Rosetta
TTITLE12=Cuount Basie - Sugar Blues
TTITLE13=Mary Lou Williams - All God's Chillun Got Rhythm
TTITLE14=Mary Lou Williams - Hesitation Boogie
EXTD=
EXTT0=
EXTT1=
EXTT2=
EXTT3=
EXTT4=
EXTT5=
EXTT6=
EXTT7=
EXTT8=
EXTT9=
EXTT10=
EXTT11=
EXTT12=
EXTT13=
EXTT14=
PLAYORDER=
